# xmcd
#
# Track frame offsets:
#	150
#	11587
#	21557
#	34140
#	43110
#	54342
#	66207
#	76812
#	85410
#	100160
#	112222
#	121640
#	134995
#	145690
#	159845
#	170325
#
# Disc length: 2441 seconds
#
# Revision: 3
# Processed by: cddbd v1.5.2PL0 Copyright (c) Steve Scherf et al.
# Submitted via: FairStars CD Ripper 1.01
#
DISCID=d5098710
DTITLE=Johnny Horton - 16 Biggest Hits
DYEAR=1999
DGENRE=Country
TTITLE0=The Battle Of New Orleans
TTITLE1=Honky Tonk Man
TTITLE2=All For The Love Of A Girl
TTITLE3=I'm A One Woman Man
TTITLE4=Jim Bridger
TTITLE5=When It's Springtime In Alaska (It's Forty Below)
TTITLE6=Johnny Reb
TTITLE7=All Grown Up
TTITLE8=Sink The Bismark
TTITLE9=Sleepy-Eyed John
TTITLE10=I'm Coming Home
TTITLE11=Whispering Pines
TTITLE12=I Got A Hole In My Pirogue
TTITLE13=The Mansion You Stole
TTITLE14=I'm Ready If You're Willing
TTITLE15=North To Alaska
EXTD=YEAR: 1999
EXTT0=
EXTT1=
EXTT2=
EXTT3=
EXTT4=
EXTT5=
EXTT6=
EXTT7=
EXTT8=
EXTT9=
EXTT10=
EXTT11=
EXTT12=
EXTT13=
EXTT14=
EXTT15=
PLAYORDER=
